<svg width="100" height="100" viewBox="0 0 100 100" fill="none" xmlns="http://www.w3.org/2000/svg">
<path d="M56.4144 0C44.7555 0 35.0341 8.39321 32.9855 19.437C29.7313 14.6702 24.2458 11.5302 18.0461 11.5302C8.09595 11.5302 0 19.6173 0 29.5393C0 35.5622 2.98367 40.9058 7.55416 44.1743C3.96237 44.7256 1.18866 47.843 1.18866 51.5726V92.5142C1.18866 96.6295 4.56526 100 8.69211 100H71.5631C75.69 100 79.0666 96.6295 79.0666 92.5142V85.7153L97.268 98.7911C97.5264 98.9746 97.8304 99.0836 98.1467 99.1063C98.463 99.129 98.7795 99.0645 99.0616 98.9199C99.3436 98.7753 99.5804 98.5561 99.7459 98.2863C99.9114 98.0165 99.9993 97.7065 100 97.3902V46.6965C100.002 46.3793 99.9154 46.0679 99.751 45.7964C99.5866 45.5248 99.3502 45.3038 99.0679 45.1576C98.7843 45.0131 98.4661 44.9495 98.1485 44.9739C97.8309 44.9982 97.5262 45.1096 97.268 45.2958L79.0666 58.3716V51.5727C79.0666 47.4573 75.69 44.0868 71.5631 44.0868H68.7772C75.6535 39.9143 80.2552 32.3713 80.2552 23.7743C80.2552 10.6675 69.5585 0 56.4144 0ZM56.4144 3.44828C67.6897 3.44828 76.7973 12.5311 76.7973 23.7743C76.7973 35.0174 67.6897 44.0868 56.4144 44.0868C45.1391 44.0868 36.045 35.0174 36.045 23.7743C36.045 12.5311 45.1391 3.44828 56.4144 3.44828ZM18.0461 14.9818C26.1276 14.9818 32.6478 21.481 32.6478 29.5393C32.6478 37.5977 26.1276 44.0868 18.0461 44.0868C9.96468 44.0868 3.45796 37.5977 3.45796 29.5393C3.45796 21.481 9.96468 14.9818 18.0461 14.9818ZM35.3155 34.8128C37.3342 38.6364 40.3659 41.847 44.055 44.0868H28.6631C31.7861 41.8168 34.1553 38.5767 35.3155 34.8128ZM8.69211 47.5384H71.5631C73.8342 47.5384 75.6087 49.3081 75.6087 51.5726V61.7423V82.3478V92.5142C75.6087 94.7788 73.8342 96.5518 71.5631 96.5518H8.69211C6.42105 96.5518 4.64662 94.7788 4.64662 92.5142V51.5726C4.64662 49.3081 6.42105 47.5384 8.69211 47.5384ZM96.5521 50.0572V94.043L79.0666 81.4689V62.6179L96.5521 50.0572ZM19.7312 56.0008C19.2727 55.9991 18.8322 56.179 18.5067 56.5011C18.1812 56.8232 17.9973 57.261 17.9955 57.7182V79.509C17.9946 79.7366 18.0389 79.962 18.1258 80.1724C18.2127 80.3828 18.3406 80.574 18.5019 80.7349C18.6633 80.8958 18.855 81.0233 19.066 81.1099C19.2769 81.1966 19.503 81.2408 19.7312 81.2399H60.5241C60.7523 81.2408 60.9784 81.1966 61.1893 81.1099C61.4003 81.0233 61.592 80.8958 61.7534 80.7349C61.9147 80.574 62.0425 80.3828 62.1295 80.1724C62.2164 79.962 62.2607 79.7366 62.2598 79.509V57.7182C62.258 57.261 62.0741 56.8232 61.7486 56.5011C61.4231 56.179 60.9826 55.9991 60.5241 56.0008H19.7312ZM21.4568 59.4356H58.7985V77.7916H21.4568V59.4356ZM19.7312 86.6245C19.503 86.6236 19.2769 86.6678 19.0659 86.7544C18.855 86.8411 18.6633 86.9686 18.5019 87.1295C18.3405 87.2904 18.2127 87.4815 18.1258 87.6919C18.0389 87.9023 17.9946 88.1278 17.9955 88.3553C17.9964 88.5818 18.042 88.8058 18.1297 89.0146C18.2174 89.2235 18.3455 89.4131 18.5067 89.5725C18.6678 89.732 18.8589 89.8583 19.0691 89.9441C19.2792 90.0299 19.5042 90.0736 19.7312 90.0727H35.1366C35.5928 90.071 36.0299 89.8895 36.3524 89.5678C36.675 89.2461 36.8571 88.8103 36.8588 88.3553C36.8606 87.8981 36.6802 87.4588 36.3572 87.1342C36.0342 86.8097 35.5952 86.6263 35.1366 86.6245H19.7312ZM45.1187 86.6245C44.6601 86.6263 44.2211 86.8097 43.8981 87.1342C43.5751 87.4588 43.3947 87.8981 43.3965 88.3553C43.3982 88.8103 43.5803 89.2461 43.9029 89.5678C44.2254 89.8895 44.6625 90.071 45.1187 90.0727H60.5241C60.7511 90.0736 60.9761 90.0299 61.1862 89.9441C61.3963 89.8583 61.5875 89.732 61.7486 89.5725C61.9098 89.4131 62.0379 89.2235 62.1256 89.0146C62.2133 88.8058 62.2589 88.5818 62.2598 88.3553C62.2607 88.1278 62.2164 87.9023 62.1295 87.6919C62.0426 87.4815 61.9148 87.2904 61.7534 87.1295C61.592 86.9686 61.4003 86.8411 61.1894 86.7544C60.9784 86.6678 60.7523 86.6236 60.5241 86.6245H45.1187Z" fill="#93C120"/>
</svg>
