<svg width="88" height="100" viewBox="0 0 88 100" fill="none" xmlns="http://www.w3.org/2000/svg">
<path d="M9.42857 6.25H6.28571V0H3.14286V6.25H0V28.125H9.42857V6.25ZM6.28571 9.375V12.5H3.14286V9.375H6.28571ZM3.14286 25V15.625H6.28571V25H3.14286Z" fill="#93C120"/>
<path d="M87.9999 71.875H78.5713V93.75H81.7141V100H84.857V93.75H87.9999V71.875ZM84.857 75V84.375H81.7141V75H84.857ZM81.7141 90.625V87.5H84.857V90.625H81.7141Z" fill="#93C120"/>
<path d="M81.7145 40.625V68.75H84.8574V40.625C84.8574 35.4688 80.6145 31.25 75.4288 31.25C70.2431 31.25 66.0002 35.4688 66.0002 40.625V71.875C66.0002 73.5938 64.5859 75 62.8574 75C61.1288 75 59.7145 73.5938 59.7145 71.875V6.25C59.7145 2.8125 56.8859 0 53.4288 0C49.9716 0 47.1431 2.8125 47.1431 6.25V90.625C47.1431 94.0625 44.3145 96.875 40.8574 96.875C37.4002 96.875 34.5716 94.0625 34.5716 90.625V21.875C34.5716 18.4375 31.7431 15.625 28.2859 15.625C24.8288 15.625 22.0002 18.4375 22.0002 21.875V54.6875C22.0002 59.0625 18.5431 62.5 14.1431 62.5C9.74307 62.5 6.28592 59.0625 6.28592 54.6875V31.25H3.14307V54.6875C3.14307 60.7813 8.01449 65.625 14.1431 65.625C20.2716 65.625 25.1431 60.7813 25.1431 54.6875V21.875C25.1431 20.1562 26.5574 18.75 28.2859 18.75C30.0145 18.75 31.4288 20.1562 31.4288 21.875V90.625C31.4288 95.7812 35.6716 100 40.8574 100C46.0431 100 50.2859 95.7812 50.2859 90.625V6.25C50.2859 4.53125 51.7002 3.125 53.4288 3.125C55.1574 3.125 56.5716 4.53125 56.5716 6.25V71.875C56.5716 75.3125 59.4002 78.125 62.8574 78.125C66.3145 78.125 69.1431 75.3125 69.1431 71.875V40.625C69.1431 37.1875 71.9716 34.375 75.4288 34.375C78.8859 34.375 81.7145 37.1875 81.7145 40.625Z" fill="#93C120"/>
<path d="M12.5716 37.5H9.42871V40.625H12.5716V37.5Z" fill="#93C120"/>
<path d="M12.5716 43.75H9.42871V46.875H12.5716V43.75Z" fill="#93C120"/>
<path d="M56.5716 84.375H53.4287V87.5H56.5716V84.375Z" fill="#93C120"/>
<path d="M56.5716 90.625H53.4287V93.75H56.5716V90.625Z" fill="#93C120"/>
<path d="M28.2859 68.75H25.1431V71.875H28.2859V68.75Z" fill="#93C120"/>
<path d="M28.2859 75H25.1431V78.125H28.2859V75Z" fill="#93C120"/>
<path d="M28.2859 81.25H25.1431V84.375H28.2859V81.25Z" fill="#93C120"/>
<path d="M65.9998 6.25H62.8569V9.375H65.9998V6.25Z" fill="#93C120"/>
<path d="M65.9998 12.5H62.8569V15.625H65.9998V12.5Z" fill="#93C120"/>
<path d="M65.9998 18.75H62.8569V21.875H65.9998V18.75Z" fill="#93C120"/>
</svg>
