<svg width="100" height="100" viewBox="0 0 100 100" fill="none" xmlns="http://www.w3.org/2000/svg">
<path d="M79.5625 68.0744C79.2187 68.0744 78.8906 67.9613 78.6094 67.719L7.73437 7.56365C6.79687 6.77213 6.21875 5.52831 6.21875 4.25219C6.21875 3.29914 6.53125 2.36224 7.10938 1.60303C7.84375 0.666135 8.85938 0.116919 9.96875 0.0199981C11.0781 -0.0930759 12.1406 0.278453 12.9688 1.00536L83.3125 60.7084C83.375 60.7569 83.4219 60.8053 83.4687 60.8699C84.0312 61.5161 84 62.5176 83.375 63.0991C82.7813 63.6483 81.8906 63.6483 81.3281 63.0991L11.0156 3.42837C10.7813 3.21838 10.5156 3.12145 10.2344 3.15376C9.95313 3.16992 9.6875 3.3153 9.48438 3.5576C9.34375 3.75144 9.26562 3.99374 9.26562 4.25219C9.26562 4.59142 9.40625 4.93064 9.65625 5.14063L80.5313 65.3121C81.1719 65.8613 81.2656 66.8467 80.7344 67.509C80.4375 67.8805 80 68.0744 79.5625 68.0744Z" fill="#93C120"/>
<path d="M88.813 80.9488C82.6411 80.9488 77.6255 75.7636 77.6255 69.383C77.6255 63.0024 82.6411 57.8171 88.813 57.8171C94.9849 57.8171 100 63.0024 100 69.383C100 75.7636 94.9849 80.9488 88.813 80.9488ZM88.813 60.9509C84.313 60.9509 80.6567 64.7308 80.6567 69.383C80.6567 74.0352 84.313 77.8151 88.813 77.8151C93.313 77.8151 96.9692 74.0352 96.9692 69.383C96.9692 64.7308 93.313 60.9509 88.813 60.9509Z" fill="#93C120"/>
<path d="M22.7661 40.6781C21.9224 40.6781 21.2505 39.9835 21.2505 39.1112V37.0436C21.2505 36.5751 20.8911 36.2036 20.4536 36.2036H15.438C14.9849 36.2036 14.6411 36.5751 14.6411 37.0436V39.1112C14.6411 39.9835 13.9692 40.6781 13.1255 40.6781C12.2817 40.6781 11.6099 39.9835 11.6099 39.1112V37.0436C11.6099 34.8467 13.3286 33.0698 15.438 33.0698H20.4536C22.563 33.0698 24.2817 34.8629 24.2817 37.0436V39.1112C24.2817 39.9835 23.6099 40.6781 22.7661 40.6781Z" fill="#93C120"/>
<path d="M15.875 36.2038C15.0313 36.2038 14.3594 35.5092 14.3594 34.6369V12.4421C14.3594 11.5698 15.0313 10.8752 15.875 10.8752C16.7188 10.8752 17.3906 11.5698 17.3906 12.4421V34.6369C17.3906 35.5092 16.7188 36.2038 15.875 36.2038Z" fill="#93C120"/>
<path d="M20.0151 36.2036C19.1714 36.2036 18.4995 35.509 18.4995 34.6368V15.9473C18.4995 15.075 19.1714 14.3804 20.0151 14.3804C20.8589 14.3804 21.5308 15.075 21.5308 15.9473V34.6368C21.5308 35.509 20.8589 36.2036 20.0151 36.2036Z" fill="#93C120"/>
<path d="M1.51563 56.5246C1.21875 56.5246 0.9375 56.4438 0.6875 56.2661C0.25 55.9754 0 55.4908 0 54.9577V38.4005C0 37.8674 0.25 37.3828 0.6875 37.092C1.10938 36.8013 1.65625 36.7528 2.125 36.9628L10.4062 40.6942C11.1719 41.0335 11.5312 41.9542 11.1875 42.7619C10.8437 43.5534 9.96875 43.9088 9.1875 43.5696L3.03125 40.7912V52.567L9.20312 49.7886C9.96875 49.4494 10.8594 49.8048 11.2031 50.5963C11.5313 51.3878 11.1875 52.3086 10.4219 52.6639L2.14063 56.3954C1.92188 56.4761 1.71875 56.5246 1.51563 56.5246Z" fill="#93C120"/>
<path d="M30.1875 55.8139H10.4062C9.23437 55.8139 8.29688 54.8286 8.29688 53.6332V39.7413C8.29688 38.5298 9.25 37.5605 10.4062 37.5605H30.1875C31.3594 37.5605 32.2969 38.5459 32.2969 39.7413V53.6332C32.2969 54.8286 31.3594 55.8139 30.1875 55.8139ZM11.3125 52.6801H29.2656V40.6782H11.3125V52.6801Z" fill="#93C120"/>
<path d="M56.2344 70.9496C55.3906 70.9496 54.7188 70.255 54.7188 69.3827V46.7195C54.7188 45.8472 55.3906 45.1526 56.2344 45.1526C57.0781 45.1526 57.75 45.8472 57.75 46.7195V69.3827C57.75 70.255 57.0625 70.9496 56.2344 70.9496Z" fill="#93C120"/>
<path d="M66.2656 70.9497C65.4219 70.9497 64.75 70.2551 64.75 69.3828V55.2163C64.75 54.344 65.4219 53.6494 66.2656 53.6494C67.1094 53.6494 67.7813 54.344 67.7813 55.2163V69.3828C67.7813 70.2551 67.0938 70.9497 66.2656 70.9497Z" fill="#93C120"/>
<path d="M66.2497 49.8536C65.906 49.8536 65.5622 49.7405 65.281 49.4982L62.1247 46.8006C61.4841 46.2513 61.3903 45.266 61.9216 44.6037C62.4528 43.9414 63.406 43.8445 64.0466 44.3937L67.2028 47.0913C67.8435 47.6405 67.9372 48.6259 67.406 49.2882C67.1247 49.6597 66.6872 49.8536 66.2497 49.8536Z" fill="#93C120"/>
<path d="M70.2812 78.1218H52.1875C50.4375 78.1218 49 76.6519 49 74.8265V71.0951C49 69.2859 50.4219 67.7998 52.1875 67.7998H70.2969C72.0469 67.7998 73.4844 69.2698 73.4844 71.0951V74.8265C73.4687 76.6519 72.0469 78.1218 70.2812 78.1218ZM52.1875 70.9497C52.1094 70.9497 52.0312 71.0143 52.0312 71.1113V74.8427C52.0312 74.9235 52.0938 75.0042 52.1875 75.0042H70.2969C70.375 75.0042 70.4531 74.9396 70.4531 74.8427V71.1113C70.4531 71.0305 70.3906 70.9497 70.2969 70.9497H52.1875Z" fill="#93C120"/>
<path d="M88.812 75.9732C85.2964 75.9732 82.437 73.0171 82.437 69.3826C82.437 65.7481 85.2964 62.792 88.812 62.792C92.3276 62.792 95.187 65.7481 95.187 69.3826C95.187 73.0171 92.3276 75.9732 88.812 75.9732ZM88.812 65.9258C86.9683 65.9258 85.4683 67.4765 85.4683 69.3826C85.4683 71.2887 86.9683 72.8394 88.812 72.8394C90.6558 72.8394 92.1558 71.2887 92.1558 69.3826C92.1558 67.4765 90.6558 65.9258 88.812 65.9258Z" fill="#93C120"/>
<path d="M19.5312 48.2864H14.7969C13.9531 48.2864 13.2812 47.5918 13.2812 46.7195C13.2812 45.8472 13.9688 45.1526 14.7969 45.1526H19.5312C20.375 45.1526 21.0469 45.8472 21.0469 46.7195C21.0469 47.5918 20.375 48.2864 19.5312 48.2864Z" fill="#93C120"/>
<path d="M31.9531 52.4054H30.7813C29.9375 52.4054 29.2656 51.7108 29.2656 50.8385C29.2656 49.9662 29.9375 49.2716 30.7813 49.2716H31.9531C33.3281 49.2716 34.4531 48.1086 34.4531 46.6871C34.4531 45.2656 33.3281 44.1025 31.9531 44.1025H30.7813C29.9375 44.1025 29.2656 43.4079 29.2656 42.5356C29.2656 41.6633 29.9375 40.9688 30.7813 40.9688H31.9531C35 40.9688 37.4844 43.5371 37.4844 46.6871C37.4844 49.837 35 52.4054 31.9531 52.4054Z" fill="#93C120"/>
<path d="M77.8124 99.9935C77.3593 99.9935 76.9218 99.7835 76.6249 99.3958L61.2499 79.091L45.8749 99.3958C45.3593 100.074 44.4062 100.203 43.7499 99.6704C43.0937 99.1374 42.9687 98.152 43.4843 97.4736L60.0624 75.6018C60.3437 75.2303 60.7968 75.0042 61.2499 75.0042C61.7187 75.0042 62.1562 75.2303 62.4374 75.6018L78.9999 97.4736C79.5156 98.152 79.4062 99.1374 78.7343 99.6704C78.4687 99.8966 78.1249 99.9935 77.8124 99.9935Z" fill="#93C120"/>
<path d="M61.2349 99.9935C60.3911 99.9935 59.7192 99.2989 59.7192 98.4266V76.5549C59.7192 75.6826 60.3911 74.988 61.2349 74.988C62.0786 74.988 62.7505 75.6826 62.7505 76.5549V98.4266C62.7505 99.2989 62.0786 99.9935 61.2349 99.9935Z" fill="#93C120"/>
</svg>
