<svg width="100" height="100" viewBox="0 0 100 100" fill="none" xmlns="http://www.w3.org/2000/svg">
<path d="M49.9998 37.5183C43.0676 37.5183 37.4629 43.1313 37.4629 50.0737C37.4629 57.0161 43.0676 62.6291 49.9998 62.6291C56.9319 62.6291 62.5366 57.0161 62.5366 50.0737C62.5366 43.1313 56.9319 37.5183 49.9998 37.5183ZM49.9998 58.1978C45.575 58.1978 41.8877 54.505 41.8877 50.0737C41.8877 45.6424 45.575 41.9496 49.9998 41.9496C54.4245 41.9496 58.1119 45.6424 58.1119 50.0737C58.1119 54.505 54.4245 58.1978 49.9998 58.1978Z" fill="#93C120"/>
<path d="M98.6726 14.0325C98.0826 13.5894 97.1976 13.5894 96.4602 13.8848L75.6637 24.0768L85.8407 3.24963C86.1357 2.51108 86.1357 1.77252 85.6932 1.03397C85.2507 0.44313 84.5133 0 83.7758 0H15.9292C15.1917 0 14.4543 0.44313 14.0118 1.03397C13.5693 1.62481 13.5693 2.51108 13.8643 3.24963L24.0413 24.0768L3.24484 13.8848C2.50737 13.5894 1.76991 13.5894 1.03245 14.0325C0.442476 14.4756 0 15.2142 0 15.9527V84.195C0 84.9335 0.442476 85.6721 1.03245 86.1152C1.32743 86.4106 1.76991 86.4106 2.21239 86.4106C2.50737 86.4106 2.94985 86.2629 3.24484 86.1152L24.0413 75.9232L13.8643 96.7504C13.5693 97.4889 13.5693 98.2275 14.0118 98.966C14.4543 99.5569 15.1917 100 15.9292 100H84.0708C84.8083 100 85.5457 99.5569 85.9882 98.966C86.4307 98.3752 86.4307 97.4889 86.1357 96.7504L75.9587 75.9232L96.7552 86.1152C97.0501 86.2629 97.3451 86.4106 97.7876 86.4106C98.2301 86.4106 98.6726 86.2629 98.9675 86.1152C99.5575 85.6721 100 84.9335 100 84.195V15.9527C99.8525 15.2142 99.41 14.4756 98.6726 14.0325ZM31.1209 68.8331V31.1669H68.7316V68.8331H31.1209ZM80.531 4.57903L69.6165 26.7356H30.3835L19.469 4.57903H80.531ZM4.57227 19.4978L26.6962 30.4284V69.7193L4.57227 80.6499V19.4978ZM19.469 95.421L30.3835 73.2644H69.6165L80.531 95.421H19.469ZM95.4277 80.6499L73.3038 69.7193V30.4284L95.4277 19.4978V80.6499Z" fill="#93C120"/>
</svg>
