<svg width="72" height="100" viewBox="0 0 72 100" fill="none" xmlns="http://www.w3.org/2000/svg">
<path d="M62.6301 30.2734H59.1781V25.8789C59.177 24.7137 58.7091 23.5966 57.877 22.7726C57.0448 21.9487 55.9165 21.4854 54.7397 21.4844H51.2877V5.37109C51.2856 3.94723 50.7134 2.58227 49.6965 1.57544C48.6797 0.568612 47.3011 0.00206658 45.863 0L26.137 0C24.6989 0.00206658 23.3203 0.568612 22.3035 1.57544C21.2866 2.58227 20.7144 3.94723 20.7123 5.37109V21.4844H17.2603C16.0835 21.4854 14.9552 21.9487 14.123 22.7726C13.2909 23.5966 12.823 24.7137 12.8219 25.8789V30.2734H9.36986C6.88578 30.2765 4.50434 31.255 2.74783 32.9941C0.991316 34.7333 0.00313186 37.0912 0 39.5508V52.2461C0.00522089 56.777 1.82538 61.1209 5.06118 64.3247C8.29698 67.5286 12.6842 69.3308 17.2603 69.3359H21.0358L22.7283 76.0391C22.8087 76.3559 22.9937 76.6371 23.2538 76.8381C23.514 77.0391 23.8344 77.1483 24.1644 77.1484H29.589V81.8047L25.9042 82.8477C24.9786 83.1128 24.1646 83.6677 23.5842 84.4293C23.0039 85.1909 22.6883 86.1182 22.6849 87.0723V91.2109H13.3151C12.1379 91.2109 11.009 91.6739 10.1767 92.4981C9.34432 93.3222 8.87671 94.44 8.87671 95.6055C8.87671 96.771 9.34432 97.8887 10.1767 98.7129C11.009 99.537 12.1379 100 13.3151 100H58.6849C59.8621 100 60.991 99.537 61.8233 98.7129C62.6557 97.8887 63.1233 96.771 63.1233 95.6055C63.1233 94.44 62.6557 93.3222 61.8233 92.4981C60.991 91.6739 59.8621 91.2109 58.6849 91.2109H49.3151V87.0723C49.3117 86.1182 48.9961 85.1909 48.4158 84.4293C47.8354 83.6677 47.0214 83.1128 46.0958 82.8477L42.411 81.8047V77.1484H47.8356C48.1656 77.1483 48.486 77.0391 48.7462 76.8381C49.0063 76.6371 49.1913 76.3559 49.2717 76.0391L50.9642 69.3359H54.7397C59.3158 69.3308 63.703 67.5286 66.9388 64.3247C70.1746 61.1209 71.9948 56.777 72 52.2461V39.5508C71.9969 37.0912 71.0087 34.7333 69.2522 32.9941C67.4957 31.255 65.1142 30.2765 62.6301 30.2734ZM51.2877 24.4141H54.7397C55.1321 24.4141 55.5084 24.5684 55.7859 24.8431C56.0633 25.1178 56.2192 25.4904 56.2192 25.8789V37.5977C56.2192 37.9862 56.0633 38.3587 55.7859 38.6335C55.5084 38.9082 55.1321 39.0625 54.7397 39.0625H51.2877V24.4141ZM23.6712 5.37109C23.6723 4.72391 23.9324 4.10353 24.3946 3.6459C24.8568 3.18827 25.4833 2.93072 26.137 2.92969H45.863C46.5167 2.93072 47.1432 3.18827 47.6054 3.6459C48.0676 4.10353 48.3277 4.72391 48.3288 5.37109V39.0625H23.6712V5.37109ZM23.6712 41.9922H48.3288V52.2461C48.3277 52.8933 48.0676 53.5137 47.6054 53.9713C47.1432 54.4289 46.5167 54.6865 45.863 54.6875H26.137C25.4833 54.6865 24.8568 54.4289 24.3946 53.9713C23.9324 53.5137 23.6723 52.8933 23.6712 52.2461V41.9922ZM15.7808 25.8789C15.7808 25.4904 15.9367 25.1178 16.2141 24.8431C16.4916 24.5684 16.8679 24.4141 17.2603 24.4141H20.7123V39.0625H17.2603C16.8679 39.0625 16.4916 38.9082 16.2141 38.6335C15.9367 38.3587 15.7808 37.9862 15.7808 37.5977V25.8789ZM25.6438 87.0723C25.6452 86.7543 25.7504 86.4453 25.9439 86.1915C26.1373 85.9376 26.4085 85.7526 26.7169 85.6641L29.589 84.8516V91.2109H25.6438V87.0723ZM58.6849 94.1406C59.0773 94.1406 59.4536 94.295 59.7311 94.5697C60.0085 94.8444 60.1644 95.217 60.1644 95.6055C60.1644 95.994 60.0085 96.3666 59.7311 96.6413C59.4536 96.916 59.0773 97.0703 58.6849 97.0703H13.3151C12.9227 97.0703 12.5464 96.916 12.2689 96.6413C11.9915 96.3666 11.8356 95.994 11.8356 95.6055C11.8356 95.217 11.9915 94.8444 12.2689 94.5697C12.5464 94.295 12.9227 94.1406 13.3151 94.1406H58.6849ZM32.5479 91.2109V77.1484H39.4521V91.2109H32.5479ZM45.2831 85.6641C45.5915 85.7526 45.8627 85.9376 46.0561 86.1915C46.2496 86.4453 46.3548 86.7543 46.3562 87.0723V91.2109H42.411V84.8516L45.2831 85.6641ZM46.6797 74.2188H25.3203L24.0875 69.3359H47.9126L46.6797 74.2188ZM69.0411 52.2461C69.0369 56.0003 67.5288 59.5996 64.8477 62.2543C62.1666 64.9089 58.5314 66.4021 54.7397 66.4062H17.2603C13.4686 66.4021 9.83341 64.9089 7.15229 62.2543C4.47117 59.5996 2.96308 56.0003 2.9589 52.2461V39.5508C2.96099 37.8679 3.6371 36.2546 4.83894 35.0646C6.04077 33.8746 7.67021 33.2052 9.36986 33.2031H12.8219V37.5977C12.823 38.7628 13.2909 39.88 14.123 40.7039C14.9552 41.5278 16.0835 41.9912 17.2603 41.9922H20.7123V52.2461C20.7144 53.67 21.2866 55.0349 22.3035 56.0417C23.3203 57.0486 24.6989 57.6151 26.137 57.6172H45.863C47.3011 57.6151 48.6797 57.0486 49.6965 56.0417C50.7134 55.0349 51.2856 53.67 51.2877 52.2461V41.9922H54.7397C55.9165 41.9912 57.0448 41.5278 57.877 40.7039C58.7091 39.88 59.177 38.7628 59.1781 37.5977V33.2031H62.6301C64.3298 33.2052 65.9592 33.8746 67.1611 35.0646C68.3629 36.2546 69.039 37.8679 69.0411 39.5508V52.2461Z" fill="#93C120"/>
<path d="M33.5341 49.8047H38.4656C38.858 49.8047 39.2343 49.6504 39.5118 49.3756C39.7892 49.1009 39.9451 48.7283 39.9451 48.3398C39.9451 47.9513 39.7892 47.5788 39.5118 47.304C39.2343 47.0293 38.858 46.875 38.4656 46.875H33.5341C33.1418 46.875 32.7655 47.0293 32.488 47.304C32.2106 47.5788 32.0547 47.9513 32.0547 48.3398C32.0547 48.7283 32.2106 49.1009 32.488 49.3756C32.7655 49.6504 33.1418 49.8047 33.5341 49.8047Z" fill="#93C120"/>
<path d="M36 9.76562C35.6076 9.76562 35.2313 9.91996 34.9538 10.1947C34.6764 10.4694 34.5205 10.842 34.5205 11.2305V30.7617C34.5205 31.1502 34.6764 31.5228 34.9538 31.7975C35.2313 32.0722 35.6076 32.2266 36 32.2266C36.3923 32.2266 36.7686 32.0722 37.0461 31.7975C37.3235 31.5228 37.4794 31.1502 37.4794 30.7617V11.2305C37.4794 10.842 37.3235 10.4694 37.0461 10.1947C36.7686 9.91996 36.3923 9.76562 36 9.76562Z" fill="#93C120"/>
<path d="M41.9179 13.6719C41.5256 13.6719 41.1492 13.8262 40.8718 14.1009C40.5943 14.3756 40.4385 14.7482 40.4385 15.1367V26.8555C40.4385 27.244 40.5943 27.6166 40.8718 27.8913C41.1492 28.166 41.5256 28.3203 41.9179 28.3203C42.3103 28.3203 42.6866 28.166 42.9641 27.8913C43.2415 27.6166 43.3974 27.244 43.3974 26.8555V15.1367C43.3974 14.7482 43.2415 14.3756 42.9641 14.1009C42.6866 13.8262 42.3103 13.6719 41.9179 13.6719Z" fill="#93C120"/>
<path d="M30.082 13.6719C29.6896 13.6719 29.3133 13.8262 29.0359 14.1009C28.7584 14.3756 28.6025 14.7482 28.6025 15.1367V26.8555C28.6025 27.244 28.7584 27.6166 29.0359 27.8913C29.3133 28.166 29.6896 28.3203 30.082 28.3203C30.4744 28.3203 30.8507 28.166 31.1281 27.8913C31.4056 27.6166 31.5614 27.244 31.5614 26.8555V15.1367C31.5614 14.7482 31.4056 14.3756 31.1281 14.1009C30.8507 13.8262 30.4744 13.6719 30.082 13.6719Z" fill="#93C120"/>
</svg>
