<svg width="100" height="100" viewBox="0 0 100 100" fill="none" xmlns="http://www.w3.org/2000/svg">
<path d="M28.6118 39.4572C27.9522 39.4572 27.3357 39.1014 27.0084 38.5294L14.4548 16.7927C14.0274 16.0638 14.1509 15.1434 14.7525 14.548C24.1881 5.16641 36.7046 0 50.0043 0C51.7523 0 53.5732 0.105008 55.5523 0.322437C56.1761 0.391619 56.7197 0.768413 57.01 1.32681C57.2929 1.88891 57.2719 2.55232 56.9593 3.09713L42.659 27.8791C42.4477 28.2448 42.1154 28.5277 41.7226 28.6808C36.901 30.5562 32.817 34.0548 30.2203 38.5331C29.888 39.1051 29.2715 39.4572 28.6118 39.4572ZM18.3918 16.191L28.7193 34.0795C31.5618 30.2943 35.384 27.3022 39.7633 25.4664L52.2811 3.77412C51.4979 3.73459 50.7443 3.71235 50.0031 3.71235C38.1697 3.71359 27.001 8.13382 18.3918 16.191Z" fill="#93C120"/>
<path d="M94.1052 32.5849H65.5033C65.082 32.5849 64.6694 32.4404 64.3359 32.1723C60.253 28.8726 55.3067 27.1245 50.0491 27.1134C49.382 27.1134 48.773 26.7576 48.4394 26.1856C48.1121 25.6087 48.1121 24.902 48.4468 24.3288L60.9708 2.64399C61.3834 1.91882 62.2321 1.56303 63.0585 1.78169C77.7653 5.75224 89.7024 16.0332 95.81 29.9869C96.0558 30.5601 96.0052 31.2235 95.6655 31.7449C95.3171 32.2699 94.7365 32.5849 94.1052 32.5849ZM66.1481 28.8714H91.175C85.4454 17.7022 75.5256 9.41023 63.4575 5.75471L53.1585 23.5888C57.8589 24.1583 62.3704 25.9818 66.1481 28.8714Z" fill="#93C120"/>
<path d="M28.5612 64.1811H3.51085C2.66958 64.1811 1.93826 63.6153 1.7196 62.7987C0.580613 58.5057 0 54.2003 0 50.0012C0 39.2966 3.38732 29.049 9.78394 20.3753C10.1533 19.875 10.6684 19.534 11.3862 19.6254C12.01 19.6576 12.5758 20.0059 12.8884 20.5507L27.1813 45.3105C27.3926 45.6761 27.4716 46.1011 27.4074 46.5187C27.2035 47.8492 27.1097 48.9561 27.1097 50.0037C27.1097 53.9817 28.1684 57.9201 30.1708 61.4002C30.5056 61.9747 30.5056 62.6813 30.1708 63.2533C29.8373 63.8277 29.2283 64.1811 28.5612 64.1811ZM4.96115 60.4675H25.5581C24.1374 57.1603 23.3962 53.595 23.3962 50.0025C23.3962 48.9437 23.4765 47.8517 23.6433 46.6076L11.1403 24.945C6.27432 32.4476 3.71345 41.0496 3.71345 50.0025C3.71345 53.4319 4.1347 56.9466 4.96115 60.4675Z" fill="#93C120"/>
<path d="M37.4224 98.2855C37.2618 98.2855 37.1025 98.262 36.9357 98.2188C22.2363 94.2421 10.3054 83.9611 4.19905 70.0148C3.9458 69.4416 4.00386 68.7782 4.34358 68.2556C4.68454 67.7293 5.27256 67.4143 5.89641 67.4143H34.4984C34.927 67.4143 35.3322 67.5601 35.6658 67.8232C39.756 71.1242 44.6949 72.871 49.9451 72.8859C50.6048 72.8859 51.2212 73.2416 51.5486 73.8186C51.8822 74.3918 51.8822 75.0984 51.5486 75.6717L39.0321 97.3577C38.6924 97.9408 38.0759 98.2855 37.4224 98.2855ZM8.83406 71.1291C14.5636 82.2946 24.4772 90.5878 36.5453 94.2458L46.8358 76.4092C42.1365 75.8409 37.6337 74.0162 33.8622 71.1304L8.83406 71.1291Z" fill="#93C120"/>
<path d="M88.7249 80.3831C88.6965 80.3831 88.6582 80.3831 88.6224 80.3782C87.9985 80.3473 87.434 79.9977 87.1214 79.4541L72.8272 54.6981C72.6098 54.3312 72.5308 53.9062 72.595 53.4899C72.7976 52.1594 72.8927 51.0525 72.8927 50.0011C72.8927 46.0232 71.834 42.081 69.8315 38.5997C69.5042 38.0265 69.5042 37.3198 69.8389 36.7466C70.1651 36.1697 70.7815 35.8188 71.4412 35.8188H96.4903C97.3316 35.8188 98.0703 36.3847 98.2889 37.2013C99.4267 41.4942 99.9999 45.7983 99.9999 50.0011C99.9999 60.7095 96.6212 70.9571 90.2172 79.6271C89.8688 80.1027 89.3117 80.3831 88.7249 80.3831ZM76.3591 53.3997L88.8694 75.0586C93.7342 67.561 96.2889 58.954 96.2889 50.0011C96.2889 46.5705 95.8677 43.0533 95.0412 39.5324H74.4443C75.865 42.8396 76.6049 46.4074 76.6049 50.0011C76.6049 51.0636 76.5259 52.1557 76.3591 53.3997Z" fill="#93C120"/>
<path d="M50.0041 100C48.2351 100 46.4155 99.8963 44.4352 99.674C43.8113 99.6048 43.2678 99.2255 42.9837 98.6659C42.7008 98.1087 42.7156 97.4453 43.0343 96.8993L57.3359 72.1284C57.5459 71.7628 57.8733 71.4798 58.2711 71.3279C63.0864 69.4526 67.1779 65.9539 69.7882 61.4707C70.1217 60.8987 70.7308 60.5466 71.3904 60.5466H71.3978C72.0575 60.5466 72.6666 60.9012 73.0013 61.4756L85.5475 83.2111C85.9675 83.94 85.844 84.8616 85.2498 85.4546C75.8142 94.8362 63.2977 100 50.0041 100ZM47.7126 96.221C48.4958 96.2643 49.2567 96.2865 50.0029 96.2865C61.8313 96.2865 73.0001 91.8663 81.608 83.8091L71.2817 65.9243C68.4392 69.712 64.6096 72.7091 60.2303 74.5411L47.7126 96.221Z" fill="#93C120"/>
</svg>
