<svg width="100" height="100" viewBox="0 0 100 100" fill="none" xmlns="http://www.w3.org/2000/svg">
<path d="M50 0C22.3663 0 0 22.3625 0 50C0 77.6337 22.3625 100 50 100C77.6337 100 100 77.6375 100 50C100 22.3663 77.6375 0 50 0ZM50 94.1176C25.6735 94.1176 5.88235 74.3265 5.88235 50C5.88235 25.6735 25.6735 5.88235 50 5.88235C74.3265 5.88235 94.1176 25.6735 94.1176 50C94.1176 74.3265 74.3265 94.1176 50 94.1176Z" fill="#93C120"/>
<path d="M49.9999 11.7646C28.917 11.7646 11.7646 28.917 11.7646 49.9999C11.7646 71.0829 28.917 88.2352 49.9999 88.2352C71.0829 88.2352 88.2352 71.0829 88.2352 49.9999C88.2352 28.917 71.0829 11.7646 49.9999 11.7646ZM49.9999 82.3529C32.1605 82.3529 17.647 67.8394 17.647 49.9999C17.647 32.1605 32.1605 17.647 49.9999 17.647C67.8394 17.647 82.3529 32.1605 82.3529 49.9999C82.3529 67.8394 67.8394 82.3529 49.9999 82.3529Z" fill="#93C120"/>
<path d="M49.9998 29.4116C48.3755 29.4116 47.0586 30.7285 47.0586 32.3528V67.6469C47.0586 69.2712 48.3755 70.5881 49.9998 70.5881C51.6241 70.5881 52.9409 69.2712 52.9409 67.6469V32.3528C52.9409 30.7285 51.6241 29.4116 49.9998 29.4116Z" fill="#93C120"/>
<path d="M61.7649 44.1177C60.1406 44.1177 58.8237 45.4345 58.8237 47.0589V58.8236C58.8237 60.4479 60.1406 61.7647 61.7649 61.7647C63.3892 61.7647 64.7061 60.4479 64.7061 58.8236V47.0589C64.7061 45.4345 63.3892 44.1177 61.7649 44.1177Z" fill="#93C120"/>
<path d="M73.5296 44.1177C71.9052 44.1177 70.5884 45.4345 70.5884 47.0589V52.9412C70.5884 54.5655 71.9052 55.8824 73.5296 55.8824C75.1539 55.8824 76.4707 54.5655 76.4707 52.9412V47.0589C76.4707 45.4345 75.1539 44.1177 73.5296 44.1177Z" fill="#93C120"/>
<path d="M38.2351 38.2354C36.6108 38.2354 35.2939 39.5522 35.2939 41.1765V55.8824C35.2939 57.5067 36.6108 58.8236 38.2351 58.8236C39.8594 58.8236 41.1763 57.5067 41.1763 55.8824V41.1765C41.1763 39.5522 39.8594 38.2354 38.2351 38.2354Z" fill="#93C120"/>
<path d="M26.4705 44.1177C24.8462 44.1177 23.5293 45.4345 23.5293 47.0589V52.9412C23.5293 54.5655 24.8462 55.8824 26.4705 55.8824C28.0948 55.8824 29.4116 54.5655 29.4116 52.9412V47.0589C29.4116 45.4345 28.0948 44.1177 26.4705 44.1177Z" fill="#93C120"/>
</svg>
