<svg width="65" height="100" viewBox="0 0 65 100" fill="none" xmlns="http://www.w3.org/2000/svg">
<path d="M64.9702 26.3534C64.8682 25.6087 64.5145 24.9542 63.9731 24.5086L51.8395 14.5233C51.2995 14.0762 50.6384 13.89 49.9719 14.0091C49.308 14.1234 48.7231 14.5202 48.326 15.1275L47.869 15.8264L40.0569 9.39781V1.5625C40.0569 0.698906 39.4332 0 38.664 0H12.2696C11.5005 0 10.8767 0.698906 10.8767 1.5625V10.2081C10.8767 11.0717 11.5005 11.7706 12.2696 11.7706H16.5109C16.9435 13.7534 18.1965 15.4659 19.9239 16.6556V25.3417H14.0774C12.5566 25.3417 11.3194 26.7288 11.3194 28.4347V32.7178H10.3815C8.86144 32.7178 7.62424 34.1048 7.62424 35.8108V42.227C7.62424 43.933 8.86144 45.3216 10.3815 45.3216H10.8086L4.424 83.0161C3.93829 83.0361 3.46205 83.1888 3.04153 83.4916C2.42126 83.9372 1.9928 84.6269 1.83567 85.4341L0.0638756 94.4978C-0.260536 96.1641 0.682751 97.815 2.16761 98.1812L9.27374 99.9298C9.47098 99.9772 9.66752 100 9.86127 100C11.1284 100 12.2737 99.0128 12.556 97.5692L12.5567 97.5677L14.3271 88.5039C14.6007 87.1028 13.9697 85.7202 12.8796 85.0959L20.9088 48.8328L21.8775 84.4131C20.6918 84.7589 19.8097 85.9591 19.8097 87.3963V96.6767C19.8097 98.3827 21.0469 99.7697 22.567 99.7697H29.8397C31.3605 99.7697 32.5977 98.3827 32.5977 96.6767V87.3963C32.5977 85.9589 31.7154 84.7587 30.5292 84.4131L31.4636 50.0939L39.2135 85.0956C38.1231 85.7197 37.4917 87.1027 37.7654 88.5042L39.5365 97.568C39.818 99.0112 40.9627 100 42.2311 100C42.4256 100 42.623 99.9772 42.8208 99.9283L49.9255 98.1812C50.6451 98.0042 51.2599 97.5236 51.6572 96.8278C52.0544 96.132 52.1849 95.305 52.0271 94.4978L50.2574 85.4325C50.0996 84.6253 49.6711 83.9372 49.0509 83.4916C48.6306 83.1888 48.1555 83.0359 47.6698 83.0161L41.2846 45.3217H41.4388C42.9589 45.3217 44.1961 43.9331 44.1961 42.2272V35.8109C44.1961 34.105 42.9589 32.718 41.4388 32.718H40.5003V28.4348C40.5003 26.7289 39.2631 25.3419 37.743 25.3419H31.0096V16.6616C32.7371 15.4717 33.991 13.757 34.4232 11.7706H38.2297L46.2206 18.3475L45.7619 19.0491C44.943 20.3019 45.1851 22.0703 46.3019 22.9889L58.4356 32.9758C58.8817 33.342 59.4014 33.5191 59.9169 33.5191C60.691 33.5191 61.4554 33.1208 61.9492 32.37L64.5133 28.4484C64.9104 27.8413 65.0723 27.0981 64.9702 26.3534ZM27.7456 84.2956H24.6611L23.6001 45.3277H28.8059L27.7456 84.2956ZM9.84094 96.8689L2.78592 95.1661L4.52304 86.1267C4.74228 86.1797 12.0787 87.9498 11.6054 87.8358L9.84094 96.8689ZM10.1823 84.3125L7.16597 83.5709L13.6436 45.3278H18.814L10.1823 84.3125ZM29.8118 96.6447L22.5955 96.6767L22.567 87.4284C29.2861 87.4206 29.5532 87.3975 29.8118 87.3964V96.6447ZM49.3283 95.1294L42.2522 96.8689L40.4655 87.8723C40.6847 87.8175 47.6765 86.0673 47.5369 86.1023L49.3283 95.1294ZM41.9108 84.3125L33.2791 45.3278H38.4502L44.9278 83.5709L41.9108 84.3125ZM41.4103 42.1967C16.7567 42.2119 21.884 42.1925 10.4102 42.2272L10.3817 35.843C20.6215 35.843 33.6531 35.8228 41.4103 35.8109V42.1967ZM37.7143 32.718H14.1052L14.0775 28.4669C21.2671 28.4573 30.53 28.4469 37.7143 28.4348V32.718ZM28.2238 25.3373H22.7099V17.9592C23.5866 18.2098 24.5101 18.367 25.4787 18.367C26.4389 18.367 27.3542 18.2108 28.2238 17.9633V25.3373ZM37.2709 8.64563H33.1976C32.4284 8.64563 31.8047 9.34453 31.8047 10.2081C31.8047 12.9364 28.908 15.242 25.4787 15.242C22.4299 15.242 19.1289 13.3248 19.1289 10.2081C19.1289 9.34453 18.5052 8.64563 17.736 8.64563H13.6627V3.125H37.2709V8.64563ZM59.8637 30.275L48.1694 20.6497C48.2754 20.4877 50.5523 17.0067 50.4112 17.2225L62.1055 26.8478L59.8637 30.275Z" fill="#93C120"/>
</svg>
