<svg width="70" height="70" viewBox="0 0 70 70" fill="none" xmlns="http://www.w3.org/2000/svg">
<path d="M50.9091 70H19.0909C14.0277 70 9.17184 67.9886 5.5916 64.4084C2.01136 60.8282 0 55.9723 0 50.9091V19.0909C0 14.0277 2.01136 9.17184 5.5916 5.5916C9.17184 2.01136 14.0277 0 19.0909 0H50.9091C55.9723 0 60.8282 2.01136 64.4084 5.5916C67.9886 9.17184 70 14.0277 70 19.0909V50.9091C70 55.9723 67.9886 60.8282 64.4084 64.4084C60.8282 67.9886 55.9723 70 50.9091 70ZM19.0909 6.36364C15.7154 6.36364 12.4782 7.70454 10.0914 10.0914C7.70454 12.4782 6.36364 15.7154 6.36364 19.0909V50.9091C6.36364 54.2846 7.70454 57.5218 10.0914 59.9086C12.4782 62.2955 15.7154 63.6364 19.0909 63.6364H50.9091C54.2846 63.6364 57.5218 62.2955 59.9086 59.9086C62.2955 57.5218 63.6364 54.2846 63.6364 50.9091V19.0909C63.6364 15.7154 62.2955 12.4782 59.9086 10.0914C57.5218 7.70454 54.2846 6.36364 50.9091 6.36364H19.0909Z" fill="#93C120"/>
<path d="M35 54.091C31.2242 54.091 27.5331 52.9713 24.3937 50.8736C21.2542 48.7759 18.8073 45.7943 17.3623 42.3059C15.9174 38.8175 15.5393 34.9789 16.2759 31.2756C17.0126 27.5724 18.8308 24.1707 21.5007 21.5008C24.1706 18.8309 27.5723 17.0126 31.2756 16.276C34.9788 15.5394 38.8174 15.9175 42.3058 17.3624C45.7942 18.8073 48.7758 21.2543 50.8735 24.3938C52.9713 27.5332 54.0909 31.2243 54.0909 35.0001C54.0909 40.0633 52.0796 44.9192 48.4993 48.4994C44.9191 52.0797 40.0632 54.091 35 54.091ZM35 22.2728C32.4828 22.2728 30.0221 23.0193 27.9291 24.4178C25.8361 25.8162 24.2048 27.804 23.2415 30.1296C22.2782 32.4552 22.0262 35.0142 22.5173 37.4831C23.0084 39.9519 24.2205 42.2197 26.0005 43.9996C27.7804 45.7796 30.0482 46.9917 32.517 47.4828C34.9859 47.9739 37.5449 47.7219 39.8705 46.7586C42.1961 45.7953 44.1839 44.164 45.5823 42.071C46.9808 39.978 47.7273 37.5173 47.7273 35.0001C47.7273 31.6246 46.3864 28.3874 43.9995 26.0006C41.6127 23.6137 38.3755 22.2728 35 22.2728Z" fill="#93C120"/>
<path d="M54.0986 15.9015C55.8558 15.9015 57.2804 14.4769 57.2804 12.7197C57.2804 10.9624 55.8558 9.53784 54.0986 9.53784C52.3413 9.53784 50.9167 10.9624 50.9167 12.7197C50.9167 14.4769 52.3413 15.9015 54.0986 15.9015Z" fill="#93C120"/>
</svg>
