<svg width="70" height="40" viewBox="0 0 70 40" fill="none" xmlns="http://www.w3.org/2000/svg">
<path fill-rule="evenodd" clip-rule="evenodd" d="M68.3522 2.77778C68.8713 1.21111 68.3522 0.0722218 66.0553 0.0722218H58.418C56.4915 0.0722218 55.6019 1.06944 55.0828 2.13611C55.0828 2.13611 51.154 11.2472 45.6678 17.1542C43.8886 18.8625 43.0734 19.4319 42.1094 19.4319C41.5903 19.4319 40.9223 18.8625 40.9223 17.2972V2.70417C40.9223 0.854167 40.3303 0 38.6984 0H26.6875C25.5005 0 24.7596 0.854167 24.7596 1.70833C24.7596 3.4875 27.5027 3.91528 27.7988 8.89722V19.7222C27.7988 22.0708 27.3613 22.5 26.39 22.5C23.7957 22.5 17.4942 13.3181 13.7142 2.85556C12.9792 0.783333 12.2325 0 10.3046 0H2.59438C0.370417 0 0 0.995833 0 2.06389C0 3.98611 2.59438 13.6653 12.0838 26.4764C18.3852 35.2264 27.3555 39.9292 35.4361 39.9292C40.3303 39.9292 40.9223 38.8611 40.9223 37.0819V30.4625C40.9223 28.3278 41.3671 27.9722 42.9246 27.9722C44.0359 27.9722 46.0382 28.5403 50.5605 32.7403C55.7492 37.7222 56.6388 40 59.5307 40H67.1665C69.3905 40 70.4288 38.9319 69.8353 36.8681C69.1688 34.8042 66.6474 31.8153 63.3851 28.2569C61.6059 26.2653 58.9372 24.0583 58.1219 22.9903C57.0107 21.5667 57.3067 20.9972 58.1219 19.7167C58.0476 19.7167 67.3897 7.04722 68.3522 2.77222" fill="#93C120"/>
</svg>
